<mxfile modified="2023-06-20T15:36:30.592Z" host="app.diagrams.net" agent="Mozilla/5.0 (Windows NT 10.0; Win64; x64) AppleWebKit/537.36 (KHTML, like Gecko) Chrome/114.0.0.0 Safari/537.36" etag="QyMT-NUqWkRtWVKdqyw0" version="21.5.0" type="github">
  <diagram name="Page-1" id="97a40813-6b03-0c74-37c1-0168de264b11">
    <mxGraphModel dx="1136" dy="697" grid="1" gridSize="10" guides="1" tooltips="1" connect="1" arrows="1" fold="1" page="1" pageScale="1" pageWidth="400" pageHeight="300" background="#ffffff" math="0" shadow="0">
      <root>
        <mxCell id="0" />
        <mxCell id="1" parent="0" />
        <mxCell id="Af59UJ3FS9_UADJuqy9A-3" value="" style="rounded=0;whiteSpace=wrap;html=1;" vertex="1" parent="1">
          <mxGeometry x="160" y="30" width="120" height="60" as="geometry" />
        </mxCell>
        <mxCell id="Af59UJ3FS9_UADJuqy9A-1" value="let a = 1&#xa;signal: let b = a + 1" style="text;whiteSpace=wrap;" vertex="1" parent="1">
          <mxGeometry x="170" y="40" width="130" height="50" as="geometry" />
        </mxCell>
        <mxCell id="Af59UJ3FS9_UADJuqy9A-4" value="" style="rounded=0;whiteSpace=wrap;html=1;" vertex="1" parent="1">
          <mxGeometry x="150" y="170" width="470" height="80" as="geometry" />
        </mxCell>
        <mxCell id="Af59UJ3FS9_UADJuqy9A-5" value="let a = 1&#xa;(aexpr(() =&gt; a + 1).onChange(resolveSignals), signals.push(() =&gt; b = a + 1), a + 1)&#xa;" style="text;whiteSpace=wrap;" vertex="1" parent="1">
          <mxGeometry x="160" y="200" width="480" height="50" as="geometry" />
        </mxCell>
        <mxCell id="Af59UJ3FS9_UADJuqy9A-6" value="" style="shape=flexArrow;endArrow=classic;html=1;rounded=0;" edge="1" parent="1">
          <mxGeometry width="50" height="50" relative="1" as="geometry">
            <mxPoint x="190" y="110" as="sourcePoint" />
            <mxPoint x="190" y="160" as="targetPoint" />
          </mxGeometry>
        </mxCell>
        <mxCell id="Af59UJ3FS9_UADJuqy9A-7" value="signal setup code" style="rounded=0;whiteSpace=wrap;html=1;" vertex="1" parent="1">
          <mxGeometry x="162" y="175" width="120" height="20" as="geometry" />
        </mxCell>
        <mxCell id="Af59UJ3FS9_UADJuqy9A-8" value="" style="shape=note;whiteSpace=wrap;html=1;backgroundOutline=1;darkOpacity=0.05;size=12;" vertex="1" parent="1">
          <mxGeometry x="20" y="155" width="90" height="75" as="geometry" />
        </mxCell>
        <mxCell id="Af59UJ3FS9_UADJuqy9A-11" value="" style="endArrow=classic;html=1;rounded=0;" edge="1" parent="1" target="Af59UJ3FS9_UADJuqy9A-7">
          <mxGeometry width="50" height="50" relative="1" as="geometry">
            <mxPoint x="50" y="190" as="sourcePoint" />
            <mxPoint x="100" y="140" as="targetPoint" />
          </mxGeometry>
        </mxCell>
        <mxCell id="Af59UJ3FS9_UADJuqy9A-12" value="&lt;span style=&quot;color: rgb(0, 0, 0); font-family: Helvetica; font-size: 12px; font-style: normal; font-variant-ligatures: normal; font-variant-caps: normal; font-weight: 400; letter-spacing: normal; orphans: 2; text-align: center; text-indent: 0px; text-transform: none; widows: 2; word-spacing: 0px; -webkit-text-stroke-width: 0px; background-color: rgb(251, 251, 251); text-decoration-thickness: initial; text-decoration-style: initial; text-decoration-color: initial; float: none; display: inline !important;&quot;&gt;signal setup code template&lt;/span&gt;" style="text;whiteSpace=wrap;html=1;" vertex="1" parent="1">
          <mxGeometry x="30" y="160" width="70" height="50" as="geometry" />
        </mxCell>
        <mxCell id="Af59UJ3FS9_UADJuqy9A-14" value="transform plugin" style="shape=note;whiteSpace=wrap;html=1;backgroundOutline=1;darkOpacity=0.05;" vertex="1" parent="1">
          <mxGeometry x="50" y="20" width="80" height="100" as="geometry" />
        </mxCell>
        <mxCell id="Af59UJ3FS9_UADJuqy9A-15" value="" style="endArrow=none;dashed=1;html=1;dashPattern=1 3;strokeWidth=2;rounded=0;" edge="1" parent="1" target="Af59UJ3FS9_UADJuqy9A-14">
          <mxGeometry width="50" height="50" relative="1" as="geometry">
            <mxPoint x="190" y="150" as="sourcePoint" />
            <mxPoint x="290" y="40" as="targetPoint" />
          </mxGeometry>
        </mxCell>
      </root>
    </mxGraphModel>
  </diagram>
</mxfile>
